<svg width="18" height="18" viewBox="0 0 18 18" fill="none" xmlns="http://www.w3.org/2000/svg">
<path d="M11.8157 11.2994C11.739 11.2995 11.663 11.2845 11.5921 11.2552C11.5212 11.2259 11.4568 11.1829 11.4025 11.1286C11.3483 11.0744 11.3053 11.01 11.276 10.9391C11.2467 10.8682 11.2317 10.7922 11.2318 10.7155V7.17833L6.18267 12.2274C6.07335 12.3368 5.92509 12.3982 5.7705 12.3982C5.6159 12.3982 5.46764 12.3368 5.35832 12.2274C5.24901 12.1181 5.1876 11.9699 5.1876 11.8153C5.1876 11.6607 5.24901 11.5124 5.35832 11.4031L10.4074 6.35398L6.86962 6.3533C6.71476 6.3533 6.56624 6.29178 6.45674 6.18227C6.34723 6.07277 6.28571 5.92425 6.28571 5.76938C6.28571 5.61452 6.34723 5.466 6.45674 5.3565C6.56624 5.24699 6.71476 5.18547 6.86962 5.18547L11.8157 5.18547C11.8924 5.18534 11.9684 5.20035 12.0393 5.22965C12.1102 5.25895 12.1746 5.30195 12.2289 5.3562C12.2831 5.41045 12.3261 5.47487 12.3554 5.54577C12.3847 5.61668 12.3997 5.69267 12.3996 5.76938L12.3996 10.7155C12.3997 10.7922 12.3847 10.8682 12.3554 10.9391C12.3261 11.01 12.2831 11.0744 12.2289 11.1286C12.1746 11.1829 12.1102 11.2259 12.0393 11.2552C11.9684 11.2845 11.8924 11.2995 11.8157 11.2994Z" fill="red"/>
</svg>
