<svg width="26" height="26" viewBox="0 0 26 26" fill="none" xmlns="http://www.w3.org/2000/svg">
<path d="M20.795 18.94H5.04503C4.9072 18.9392 4.772 18.9022 4.65294 18.8327C4.53389 18.7633 4.43514 18.6638 4.36659 18.5442C4.29803 18.4246 4.26206 18.2892 4.26227 18.1513C4.26248 18.0135 4.29886 17.8781 4.36778 17.7588C5.01648 16.6366 5.83253 13.8025 5.83253 10.2775C5.83253 8.39778 6.57925 6.59505 7.90841 5.26588C9.23758 3.93672 11.0403 3.19 12.92 3.19C14.7998 3.19 16.6025 3.93672 17.9316 5.26588C19.2608 6.59505 20.0075 8.39778 20.0075 10.2775C20.0075 13.8035 20.8246 16.6366 21.4742 17.7588C21.5432 17.8783 21.5796 18.0138 21.5798 18.1518C21.5799 18.2898 21.5437 18.4254 21.4749 18.5451C21.4062 18.6647 21.3071 18.7641 21.1878 18.8335C21.0685 18.9028 20.933 18.9395 20.795 18.94Z" fill="#4F45E4"/>
<path d="M22.1535 17.3591C21.6072 16.418 20.795 13.7553 20.795 10.2775C20.795 8.18892 19.9654 6.18588 18.4885 4.70903C17.0117 3.23218 15.0086 2.4025 12.9201 2.4025C10.8315 2.4025 8.82843 3.23218 7.35158 4.70903C5.87474 6.18588 5.04505 8.18892 5.04505 10.2775C5.04505 13.7563 4.23196 16.418 3.68563 17.3591C3.54611 17.5983 3.47215 17.8701 3.4712 18.1471C3.47025 18.424 3.54234 18.6963 3.68021 18.9365C3.81808 19.1767 4.01685 19.3763 4.25647 19.5152C4.4961 19.6541 4.7681 19.7273 5.04505 19.7275H9.06228C9.24397 20.6165 9.72716 21.4155 10.4301 21.9894C11.1331 22.5632 12.0126 22.8766 12.9201 22.8766C13.8275 22.8766 14.707 22.5632 15.41 21.9894C16.1129 21.4155 16.5961 20.6165 16.7778 19.7275H20.795C21.0719 19.7271 21.3438 19.6538 21.5833 19.5148C21.8228 19.3759 22.0214 19.1763 22.1591 18.9361C22.2969 18.6959 22.3689 18.4237 22.3679 18.1468C22.3669 17.87 22.293 17.5983 22.1535 17.3591ZM12.9201 21.3025C12.4316 21.3023 11.9552 21.1508 11.5565 20.8688C11.1577 20.5867 10.8562 20.188 10.6934 19.7275H15.1467C14.9839 20.188 14.6824 20.5867 14.2836 20.8688C13.8849 21.1508 13.4085 21.3023 12.9201 21.3025ZM5.04505 18.1525C5.80302 16.8492 6.62005 13.8291 6.62005 10.2775C6.62005 8.60663 7.2838 7.0042 8.46528 5.82272C9.64676 4.64124 11.2492 3.9775 12.9201 3.9775C14.5909 3.9775 16.1933 4.64124 17.3748 5.82272C18.5563 7.0042 19.22 8.60663 19.22 10.2775C19.22 13.8262 20.0351 16.8462 20.795 18.1525H5.04505Z" fill="white"/>
</svg>
