<svg width="36" height="36" viewBox="0 0 36 36" fill="none" xmlns="http://www.w3.org/2000/svg">
<path d="M13.4399 12.3895V8.18945V12.3895ZM21.8399 12.3895V8.18945V12.3895ZM12.3899 16.5895H22.8899H12.3899ZM10.2899 27.0895H24.9899C25.5469 27.0895 26.081 26.8682 26.4749 26.4744C26.8687 26.0805 27.0899 25.5464 27.0899 24.9895V12.3895C27.0899 11.8325 26.8687 11.2984 26.4749 10.9045C26.081 10.5107 25.5469 10.2895 24.9899 10.2895H10.2899C9.73299 10.2895 9.19884 10.5107 8.80502 10.9045C8.41119 11.2984 8.18994 11.8325 8.18994 12.3895V24.9895C8.18994 25.5464 8.41119 26.0805 8.80502 26.4744C9.19884 26.8682 9.73299 27.0895 10.2899 27.0895Z" fill="#4F45E4"/>
<path d="M13.4399 12.3895V8.18945M21.8399 12.3895V8.18945M12.3899 16.5895H22.8899M10.2899 27.0895H24.9899C25.5469 27.0895 26.081 26.8682 26.4749 26.4744C26.8687 26.0805 27.0899 25.5464 27.0899 24.9895V12.3895C27.0899 11.8325 26.8687 11.2984 26.4749 10.9045C26.081 10.5107 25.5469 10.2895 24.9899 10.2895H10.2899C9.73299 10.2895 9.19884 10.5107 8.80502 10.9045C8.41119 11.2984 8.18994 11.8325 8.18994 12.3895V24.9895C8.18994 25.5464 8.41119 26.0805 8.80502 26.4744C9.19884 26.8682 9.73299 27.0895 10.2899 27.0895Z" stroke="white" stroke-width="1.512" stroke-linecap="round" stroke-linejoin="round"/>
</svg>
