<svg width="24" height="24" viewBox="0 0 24 24" fill="none" xmlns="http://www.w3.org/2000/svg">
<g opacity="0.5">
<path d="M8.85 12L10.3 10.55C10.5 10.35 10.596 10.1167 10.588 9.85C10.58 9.58333 10.484 9.35 10.3 9.15C10.1 8.95 9.86267 8.846 9.588 8.838C9.31333 8.83 9.07567 8.92567 8.875 9.125L6.7 11.3C6.5 11.5 6.4 11.7333 6.4 12C6.4 12.2667 6.5 12.5 6.7 12.7L8.875 14.875C9.075 15.075 9.31267 15.171 9.588 15.163C9.86333 15.155 10.1007 15.0507 10.3 14.85C10.4833 14.65 10.5793 14.4167 10.588 14.15C10.5967 13.8833 10.5007 13.65 10.3 13.45L8.85 12ZM15.15 12L13.7 13.45C13.5 13.65 13.404 13.8833 13.412 14.15C13.42 14.4167 13.516 14.65 13.7 14.85C13.9 15.05 14.1377 15.154 14.413 15.162C14.6883 15.17 14.9257 15.0743 15.125 14.875L17.3 12.7C17.5 12.5 17.6 12.2667 17.6 12C17.6 11.7333 17.5 11.5 17.3 11.3L15.125 9.125C14.925 8.925 14.6877 8.829 14.413 8.837C14.1383 8.845 13.9007 8.94933 13.7 9.15C13.5167 9.35 13.421 9.58333 13.413 9.85C13.405 10.1167 13.5007 10.35 13.7 10.55L15.15 12ZM5 21C4.45 21 3.97933 20.8043 3.588 20.413C3.19667 20.0217 3.00067 19.5507 3 19V5C3 4.45 3.196 3.97933 3.588 3.588C3.98 3.19667 4.45067 3.00067 5 3H9.2C9.41667 2.4 9.77933 1.91667 10.288 1.55C10.7967 1.18333 11.3673 1 12 1C12.6327 1 13.2037 1.18333 13.713 1.55C14.2223 1.91667 14.5847 2.4 14.8 3H19C19.55 3 20.021 3.196 20.413 3.588C20.805 3.98 21.0007 4.45067 21 5V19C21 19.55 20.8043 20.021 20.413 20.413C20.0217 20.805 19.5507 21.0007 19 21H5ZM5 19H19V5H5V19ZM12 4.25C12.2167 4.25 12.396 4.179 12.538 4.037C12.68 3.895 12.7507 3.716 12.75 3.5C12.7493 3.284 12.6783 3.105 12.537 2.963C12.3957 2.821 12.2167 2.75 12 2.75C11.7833 2.75 11.6043 2.821 11.463 2.963C11.3217 3.105 11.2507 3.284 11.25 3.5C11.2493 3.716 11.3203 3.89533 11.463 4.038C11.6057 4.18067 11.7847 4.25133 12 4.25Z" fill="black"/>
</g>
</svg>
