<svg width="25" height="25" viewBox="0 0 25 25" fill="none" xmlns="http://www.w3.org/2000/svg">
<circle opacity="0.2" cx="12.324" cy="12.3238" r="11.5454" transform="rotate(7.60924 12.324 12.3238)" fill="#4F45E4" stroke="white" stroke-width="1.15454"/>
<circle cx="12.3423" cy="12.3481" r="7.09004" transform="rotate(7.60924 12.3423 12.3481)" fill="#4F45E4" stroke="white" stroke-width="0.709004"/>
<g clip-path="url(#clip0_1_1300)">
<path d="M15.9357 9.25345L15.9732 9.25631L16.0185 9.26523L16.0494 9.27507L16.091 9.29315L16.1264 9.31433L16.1589 9.33906L16.1873 9.36682L16.2126 9.39703L16.2281 9.4202L16.2515 9.46481L16.2653 9.50098C16.277 9.53831 16.2826 9.57673 16.2821 9.61624L16.2788 9.65372C16.2753 9.68019 16.2691 9.70559 16.2601 9.7299L16.242 9.77148L13.0982 15.8167C13.0421 15.9057 12.9616 15.9766 12.8663 16.0211C12.771 16.0656 12.665 16.0819 12.5608 16.0679C12.4669 16.0556 12.3778 16.0192 12.3021 15.9622C12.2264 15.9053 12.1667 15.8298 12.1288 15.743L12.112 15.6954L11.2487 13.1831L9.06163 11.6978C8.98021 11.6465 8.91367 11.5748 8.86866 11.4898C8.82366 11.4047 8.80177 11.3094 8.80519 11.2132L8.81007 11.1606C8.83636 10.9638 8.96616 10.798 9.16989 10.7187L9.22237 10.7006L15.8586 9.26031L15.8972 9.25475L15.9357 9.25345Z" fill="white"/>
</g>
<defs>
<clipPath id="clip0_1_1300">
<rect width="8.50804" height="8.50804" fill="white" transform="translate(8.68912 7.56785) rotate(7.60924)"/>
</clipPath>
</defs>
</svg>
