<svg width="20" height="21" viewBox="0 0 20 21" fill="none" xmlns="http://www.w3.org/2000/svg">
<path d="M17.9375 18.4453C17.8208 18.5602 17.6637 18.6247 17.5 18.625C17.334 18.6243 17.1747 18.56 17.0547 18.4453L13.6797 15.0625C12.2583 16.2564 10.4308 16.8555 8.57844 16.7348C6.72607 16.614 4.99182 15.7828 3.73738 14.4146C2.48294 13.0463 1.80518 11.2465 1.84545 9.39063C1.88571 7.53477 2.6409 5.7661 3.9535 4.4535C5.2661 3.1409 7.03477 2.38571 8.89063 2.34545C10.7465 2.30518 12.5463 2.98294 13.9146 4.23738C15.2828 5.49182 16.114 7.22607 16.2348 9.07844C16.3555 10.9308 15.7564 12.7583 14.5625 14.1797L17.9375 17.5547C17.9966 17.6128 18.0434 17.6822 18.0755 17.7586C18.1075 17.8351 18.124 17.9171 18.124 18C18.124 18.0829 18.1075 18.1649 18.0755 18.2414C18.0434 18.3178 17.9966 18.3872 17.9375 18.4453ZM9.0625 15.5C10.2368 15.5 11.3848 15.1518 12.3612 14.4994C13.3376 13.8469 14.0986 12.9196 14.548 11.8347C14.9974 10.7497 15.115 9.55591 14.8859 8.40415C14.6568 7.25239 14.0913 6.19443 13.2609 5.36405C12.4306 4.53368 11.3726 3.96819 10.2208 3.73909C9.06909 3.50999 7.87525 3.62757 6.79032 4.07696C5.70538 4.52636 4.77807 5.28738 4.12565 6.2638C3.47323 7.24022 3.125 8.38817 3.125 9.5625C3.12707 11.1366 3.75329 12.6456 4.86634 13.7587C5.97938 14.8717 7.48841 15.4979 9.0625 15.5Z" fill="white"/>
</svg>
