<svg width="26" height="26" viewBox="0 0 26 26" fill="none" xmlns="http://www.w3.org/2000/svg">
<path d="M14.6828 4.36694C14.3745 4.23926 13.9831 4.23926 13.2002 4.23926C12.4173 4.23926 12.0259 4.23926 11.7176 4.36694C11.5136 4.45137 11.3283 4.57517 11.1722 4.73127C11.0161 4.88736 10.8923 5.07269 10.8079 5.27666C10.7306 5.46398 10.6995 5.68322 10.6878 6.00158C10.6823 6.23168 10.6185 6.45663 10.5025 6.6554C10.3864 6.85416 10.2219 7.02024 10.0242 7.1381C9.82323 7.25047 9.59709 7.31002 9.36688 7.3112C9.13667 7.31237 8.90993 7.25513 8.70787 7.14482C8.42563 6.9953 8.22151 6.91298 8.01907 6.8861C7.5775 6.82803 7.13094 6.94768 6.77755 7.21874C6.51379 7.42286 6.31723 7.76138 5.92579 8.43926C5.53435 9.11714 5.33779 9.45566 5.29495 9.78746C5.26609 10.0062 5.28061 10.2286 5.33768 10.4417C5.39476 10.6549 5.49327 10.8547 5.62759 11.0298C5.75191 11.1911 5.92579 11.3263 6.19543 11.496C6.59275 11.7455 6.84811 12.1705 6.84811 12.6393C6.84811 13.108 6.59275 13.533 6.19543 13.7817C5.92579 13.9522 5.75107 14.0874 5.62759 14.2487C5.49327 14.4238 5.39476 14.6236 5.33768 14.8368C5.28061 15.05 5.26609 15.2723 5.29495 15.4911C5.33863 15.822 5.53435 16.1614 5.92495 16.8393C6.31723 17.5171 6.51295 17.8557 6.77755 18.0598C6.95264 18.1941 7.15247 18.2926 7.36564 18.3497C7.57881 18.4068 7.80113 18.4213 8.01991 18.3924C8.22151 18.3655 8.42563 18.2832 8.70787 18.1337C8.90993 18.0234 9.13667 17.9661 9.36688 17.9673C9.59709 17.9685 9.82323 18.028 10.0242 18.1404C10.4299 18.3756 10.671 18.8082 10.6878 19.2769C10.6995 19.5961 10.7298 19.8145 10.8079 20.0019C10.8923 20.2058 11.0161 20.3912 11.1722 20.5472C11.3283 20.7033 11.5136 20.8271 11.7176 20.9116C12.0259 21.0393 12.4173 21.0393 13.2002 21.0393C13.9831 21.0393 14.3745 21.0393 14.6828 20.9116C14.8868 20.8271 15.0721 20.7033 15.2282 20.5472C15.3843 20.3912 15.5081 20.2058 15.5925 20.0019C15.6698 19.8145 15.7009 19.5961 15.7126 19.2769C15.7294 18.8082 15.9705 18.3748 16.3762 18.1404C16.5772 18.028 16.8033 17.9685 17.0335 17.9673C17.2637 17.9661 17.4905 18.0234 17.6925 18.1337C17.9748 18.2832 18.1789 18.3655 18.3805 18.3924C18.5993 18.4213 18.8216 18.4068 19.0347 18.3497C19.2479 18.2926 19.4477 18.1941 19.6228 18.0598C19.8874 17.8565 20.0832 17.5171 20.4746 16.8393C20.866 16.1614 21.0626 15.8229 21.1054 15.4911C21.1343 15.2723 21.1198 15.05 21.0627 14.8368C21.0056 14.6236 20.9071 14.4238 20.7728 14.2487C20.6485 14.0874 20.4746 13.9522 20.205 13.7825C20.0083 13.6627 19.8453 13.495 19.7312 13.2951C19.617 13.0951 19.5555 12.8695 19.5523 12.6393C19.5523 12.1705 19.8076 11.7455 20.205 11.4969C20.4746 11.3263 20.6493 11.1911 20.7728 11.0298C20.9071 10.8547 21.0056 10.6549 21.0627 10.4417C21.1198 10.2286 21.1343 10.0062 21.1054 9.78746C21.0618 9.4565 20.866 9.11714 20.4754 8.43926C20.0832 7.76138 19.8874 7.42286 19.6228 7.21874C19.4477 7.08441 19.2479 6.9859 19.0347 6.92883C18.8216 6.87175 18.5993 6.85723 18.3805 6.8861C18.1789 6.91298 17.9748 6.9953 17.6917 7.14482C17.4897 7.25498 17.2631 7.31214 17.0331 7.31097C16.803 7.30979 16.5771 7.25032 16.3762 7.1381C16.1785 7.02024 16.014 6.85416 15.8979 6.6554C15.7818 6.45663 15.7181 6.23168 15.7126 6.00158C15.7009 5.68238 15.6706 5.46398 15.5925 5.27666C15.5081 5.07269 15.3843 4.88736 15.2282 4.73127C15.0721 4.57517 14.8868 4.45137 14.6828 4.36694Z" fill="#4F45E4"/>
<path d="M14.6828 4.36694C14.3745 4.23926 13.9831 4.23926 13.2002 4.23926C12.4173 4.23926 12.0259 4.23926 11.7176 4.36694C11.5136 4.45137 11.3283 4.57517 11.1722 4.73127C11.0161 4.88736 10.8923 5.07269 10.8079 5.27666C10.7306 5.46398 10.6995 5.68322 10.6878 6.00158C10.6823 6.23168 10.6185 6.45663 10.5025 6.6554C10.3864 6.85416 10.2219 7.02024 10.0242 7.1381C9.82323 7.25047 9.59709 7.31002 9.36688 7.3112C9.13667 7.31237 8.90993 7.25513 8.70787 7.14482C8.42563 6.9953 8.22151 6.91298 8.01907 6.8861C7.5775 6.82803 7.13094 6.94768 6.77755 7.21874C6.51379 7.42286 6.31723 7.76138 5.92579 8.43926C5.53435 9.11714 5.33779 9.45566 5.29495 9.78746C5.26609 10.0062 5.28061 10.2286 5.33768 10.4417C5.39476 10.6549 5.49327 10.8547 5.62759 11.0298C5.75191 11.1911 5.92579 11.3263 6.19543 11.496C6.59275 11.7455 6.84811 12.1705 6.84811 12.6393C6.84811 13.108 6.59275 13.533 6.19543 13.7817C5.92579 13.9522 5.75107 14.0874 5.62759 14.2487C5.49327 14.4238 5.39476 14.6236 5.33768 14.8368C5.28061 15.05 5.26609 15.2723 5.29495 15.4911C5.33863 15.822 5.53435 16.1614 5.92495 16.8393C6.31723 17.5171 6.51295 17.8557 6.77755 18.0598C6.95264 18.1941 7.15247 18.2926 7.36564 18.3497C7.57881 18.4068 7.80113 18.4213 8.01991 18.3924C8.22151 18.3655 8.42563 18.2832 8.70787 18.1337C8.90993 18.0234 9.13667 17.9661 9.36688 17.9673C9.59709 17.9685 9.82323 18.028 10.0242 18.1404C10.4299 18.3756 10.671 18.8082 10.6878 19.2769C10.6995 19.5961 10.7298 19.8145 10.8079 20.0019C10.8923 20.2058 11.0161 20.3912 11.1722 20.5472C11.3283 20.7033 11.5136 20.8271 11.7176 20.9116C12.0259 21.0393 12.4173 21.0393 13.2002 21.0393C13.9831 21.0393 14.3745 21.0393 14.6828 20.9116C14.8868 20.8271 15.0721 20.7033 15.2282 20.5472C15.3843 20.3912 15.5081 20.2058 15.5925 20.0019C15.6698 19.8145 15.7009 19.5961 15.7126 19.2769C15.7294 18.8082 15.9705 18.3748 16.3762 18.1404C16.5772 18.028 16.8033 17.9685 17.0335 17.9673C17.2637 17.9661 17.4905 18.0234 17.6925 18.1337C17.9748 18.2832 18.1789 18.3655 18.3805 18.3924C18.5993 18.4213 18.8216 18.4068 19.0347 18.3497C19.2479 18.2926 19.4477 18.1941 19.6228 18.0598C19.8874 17.8565 20.0832 17.5171 20.4746 16.8393C20.866 16.1614 21.0626 15.8229 21.1054 15.4911C21.1343 15.2723 21.1198 15.05 21.0627 14.8368C21.0056 14.6236 20.9071 14.4238 20.7728 14.2487C20.6485 14.0874 20.4746 13.9522 20.205 13.7825C20.0083 13.6627 19.8453 13.495 19.7312 13.2951C19.617 13.0951 19.5555 12.8695 19.5523 12.6393C19.5523 12.1705 19.8076 11.7455 20.205 11.4969C20.4746 11.3263 20.6493 11.1911 20.7728 11.0298C20.9071 10.8547 21.0056 10.6549 21.0627 10.4417C21.1198 10.2286 21.1343 10.0062 21.1054 9.78746C21.0618 9.4565 20.866 9.11714 20.4754 8.43926C20.0832 7.76138 19.8874 7.42286 19.6228 7.21874C19.4477 7.08441 19.2479 6.9859 19.0347 6.92883C18.8216 6.87175 18.5993 6.85723 18.3805 6.8861C18.1789 6.91298 17.9748 6.9953 17.6917 7.14482C17.4897 7.25498 17.2631 7.31214 17.0331 7.31097C16.803 7.30979 16.5771 7.25032 16.3762 7.1381C16.1785 7.02024 16.014 6.85416 15.8979 6.6554C15.7818 6.45663 15.7181 6.23168 15.7126 6.00158C15.7009 5.68238 15.6706 5.46398 15.5925 5.27666C15.5081 5.07269 15.3843 4.88736 15.2282 4.73127C15.0721 4.57517 14.8868 4.45137 14.6828 4.36694Z" fill="#4F45E4"/>
<path d="M14.6828 4.36694C14.3745 4.23926 13.9831 4.23926 13.2002 4.23926C12.4173 4.23926 12.0259 4.23926 11.7176 4.36694C11.5136 4.45137 11.3283 4.57517 11.1722 4.73127C11.0161 4.88736 10.8923 5.07269 10.8079 5.27666C10.7306 5.46398 10.6995 5.68322 10.6878 6.00158C10.6823 6.23168 10.6185 6.45663 10.5025 6.6554C10.3864 6.85416 10.2219 7.02024 10.0242 7.1381C9.82323 7.25047 9.59709 7.31002 9.36688 7.3112C9.13667 7.31237 8.90993 7.25513 8.70787 7.14482C8.42563 6.9953 8.22151 6.91298 8.01907 6.8861C7.5775 6.82803 7.13094 6.94768 6.77755 7.21874C6.51379 7.42286 6.31723 7.76138 5.92579 8.43926C5.53435 9.11714 5.33779 9.45566 5.29495 9.78746C5.26609 10.0062 5.28061 10.2286 5.33768 10.4417C5.39476 10.6549 5.49327 10.8547 5.62759 11.0298C5.75191 11.1911 5.92579 11.3263 6.19543 11.496C6.59275 11.7455 6.84811 12.1705 6.84811 12.6393C6.84811 13.108 6.59275 13.533 6.19543 13.7817C5.92579 13.9522 5.75107 14.0874 5.62759 14.2487C5.49327 14.4238 5.39476 14.6236 5.33768 14.8368C5.28061 15.05 5.26609 15.2723 5.29495 15.4911C5.33863 15.822 5.53435 16.1614 5.92495 16.8393C6.31723 17.5171 6.51295 17.8557 6.77755 18.0598C6.95264 18.1941 7.15247 18.2926 7.36564 18.3497C7.57881 18.4068 7.80113 18.4213 8.01991 18.3924C8.22151 18.3655 8.42563 18.2832 8.70787 18.1337C8.90993 18.0234 9.13667 17.9661 9.36688 17.9673C9.59709 17.9685 9.82323 18.028 10.0242 18.1404C10.4299 18.3756 10.671 18.8082 10.6878 19.2769C10.6995 19.5961 10.7298 19.8145 10.8079 20.0019C10.8923 20.2058 11.0161 20.3912 11.1722 20.5472C11.3283 20.7033 11.5136 20.8271 11.7176 20.9116C12.0259 21.0393 12.4173 21.0393 13.2002 21.0393C13.9831 21.0393 14.3745 21.0393 14.6828 20.9116C14.8868 20.8271 15.0721 20.7033 15.2282 20.5472C15.3843 20.3912 15.5081 20.2058 15.5925 20.0019C15.6698 19.8145 15.7009 19.5961 15.7126 19.2769C15.7294 18.8082 15.9705 18.3748 16.3762 18.1404C16.5772 18.028 16.8033 17.9685 17.0335 17.9673C17.2637 17.9661 17.4905 18.0234 17.6925 18.1337C17.9748 18.2832 18.1789 18.3655 18.3805 18.3924C18.5993 18.4213 18.8216 18.4068 19.0347 18.3497C19.2479 18.2926 19.4477 18.1941 19.6228 18.0598C19.8874 17.8565 20.0832 17.5171 20.4746 16.8393C20.866 16.1614 21.0626 15.8229 21.1054 15.4911C21.1343 15.2723 21.1198 15.05 21.0627 14.8368C21.0056 14.6236 20.9071 14.4238 20.7728 14.2487C20.6485 14.0874 20.4746 13.9522 20.205 13.7825C20.0083 13.6627 19.8453 13.495 19.7312 13.2951C19.617 13.0951 19.5555 12.8695 19.5523 12.6393C19.5523 12.1705 19.8076 11.7455 20.205 11.4969C20.4746 11.3263 20.6493 11.1911 20.7728 11.0298C20.9071 10.8547 21.0056 10.6549 21.0627 10.4417C21.1198 10.2286 21.1343 10.0062 21.1054 9.78746C21.0618 9.4565 20.866 9.11714 20.4754 8.43926C20.0832 7.76138 19.8874 7.42286 19.6228 7.21874C19.4477 7.08441 19.2479 6.9859 19.0347 6.92883C18.8216 6.87175 18.5993 6.85723 18.3805 6.8861C18.1789 6.91298 17.9748 6.9953 17.6917 7.14482C17.4897 7.25498 17.2631 7.31214 17.0331 7.31097C16.803 7.30979 16.5771 7.25032 16.3762 7.1381C16.1785 7.02024 16.014 6.85416 15.8979 6.6554C15.7818 6.45663 15.7181 6.23168 15.7126 6.00158C15.7009 5.68238 15.6706 5.46398 15.5925 5.27666C15.5081 5.07269 15.3843 4.88736 15.2282 4.73127C15.0721 4.57517 14.8868 4.45137 14.6828 4.36694Z" stroke="white" stroke-width="1.512"/>
<path d="M13.2002 15.1601C14.5919 15.1601 15.7202 14.0319 15.7202 12.6401C15.7202 11.2484 14.5919 10.1201 13.2002 10.1201C11.8084 10.1201 10.6802 11.2484 10.6802 12.6401C10.6802 14.0319 11.8084 15.1601 13.2002 15.1601Z" stroke="white" stroke-width="1.512"/>
</svg>
