<svg width="24" height="24" viewBox="0 0 24 24" fill="none" xmlns="http://www.w3.org/2000/svg">
<g opacity="1.0">
<path d="M17.5 22V3.5C17.5 3.10218 17.342 2.72064 17.0607 2.43934C16.7794 2.15804 16.3978 2 16 2H4C3.60218 2 3.22064 2.15804 2.93934 2.43934C2.65804 2.72064 2.5 3.10218 2.5 3.5V20.5C2.5 20.8978 2.65804 21.2794 2.93934 21.5607C3.22064 21.842 3.60218 22 4 22H17.5ZM17.5 22H20C20.3978 22 20.7794 21.842 21.0607 21.5607C21.342 21.2794 21.5 20.8978 21.5 20.5V12C21.5 11.7348 21.3946 11.4804 21.2071 11.2929C21.0196 11.1054 20.7652 11 20.5 11H18.5C18.2348 11 17.9804 11.1054 17.7929 11.2929C17.6054 11.4804 17.5 11.7348 17.5 12V22Z" stroke="white" stroke-width="2" stroke-linejoin="round"/>
<path d="M5.5 6H9.5M5.5 9.5H11.5" stroke="white" stroke-width="2" stroke-linecap="round" stroke-linejoin="round"/>
</g>
</svg>
